<svg height="48" width="48" xmlns="http://www.w3.org/2000/svg"><path d="m14.5 17v-3h27.5v3zm0 8.5v-3h27.5v3zm0 8.5v-3h27.5v3zm-7-17q-.65 0-1.075-.425-.425-.425-.425-1.075 0-.65.425-1.075.425-.425 1.075-.425.65 0 1.075.425.425.425.425 1.075 0 .65-.425 1.075-.425.425-1.075.425zm0 8.5q-.65 0-1.075-.425-.425-.425-.425-1.075 0-.65.425-1.075.425-.425 1.075-.425.65 0 1.075.425.425.425.425 1.075 0 .65-.425 1.075-.425.425-1.075.425zm0 8.5q-.65 0-1.075-.425-.425-.425-.425-1.075 0-.65.425-1.075.425-.425 1.075-.425.65 0 1.075.425.425.425.425 1.075 0 .65-.425 1.075-.425.425-1.075.425z"/></svg>