<svg height="48" width="48" xmlns="http://www.w3.org/2000/svg"><path d="m32.9 15.6v-6.6h-17.8v6.6h-3v-9.6h23.8v9.6zm-25.9 3q0 0 .65 0 .65 0 1.65 0h29.4q1 0 1.65 0 .65 0 .65 0h-5.1-23.8zm29.95 4.75q.6 0 1.05-.45.45-.45.45-1.05 0-.6-.45-1.05-.45-.45-1.05-.45-.6 0-1.05.45-.45.45-.45 1.05 0 .6.45 1.05.45.45 1.05.45zm-4.05 15.65v-9.6h-17.8v9.6zm3 3h-23.8v-8.8h-8.1v-12.3q0-2.25 1.525-3.775 1.525-1.525 3.775-1.525h29.4q2.25 0 3.775 1.525 1.525 1.525 1.525 3.775v12.3h-8.1zm5.1-11.8v-9.3q0-1-.65-1.65-.65-.65-1.65-.65h-29.4q-1 0-1.65.65-.65.65-.65 1.65v9.3h5.1v-3.8h23.8v3.8z"/></svg>